<?xml version="1.0" encoding="UTF-8" standalone="no"?>
<svg
   width="22"
   height="22"
   version="1.1"
   id="svg1169"
   sodipodi:docname="checkbox-focused.svg"
   inkscape:version="1.1.2 (0a00cf5339, 2022-02-04)"
   xmlns:inkscape="http://www.inkscape.org/namespaces/inkscape"
   xmlns:sodipodi="http://sodipodi.sourceforge.net/DTD/sodipodi-0.dtd"
   xmlns="http://www.w3.org/2000/svg"
   xmlns:svg="http://www.w3.org/2000/svg">
  <defs
     id="defs1173" />
  <sodipodi:namedview
     id="namedview1171"
     pagecolor="#ffffff"
     bordercolor="#666666"
     borderopacity="1.0"
     inkscape:pageshadow="2"
     inkscape:pageopacity="0.0"
     inkscape:pagecheckerboard="0"
     showgrid="false"
     inkscape:zoom="36.090909"
     inkscape:cx="4.0176323"
     inkscape:cy="11.027708"
     inkscape:window-width="1920"
     inkscape:window-height="1002"
     inkscape:window-x="0"
     inkscape:window-y="0"
     inkscape:window-maximized="1"
     inkscape:current-layer="svg1169" />
  <rect
     width="22"
     height="22"
     ry="5.0"
     fill="#f24342"
     id="rect1165"
     style="fill:#ff7321;fill-opacity:1" />
  <path
     d="M17.554 8.722l-7.76 7.047c-.155.154-.386.231-.58.231-.232 0-.425-.077-.58-.231l-4.188-4.19A.85.85 0 0 1 4.214 11a.85.85 0 0 1 .232-.579l1.331-1.333c.155-.154.386-.231.58-.231.232 0 .425.077.58.231l2.277 2.626 5.849-5.483c.155-.154.386-.231.58-.231.232 0 .425.077.58.231l1.331 1.333a.85.85 0 0 1 .232.579.85.85 0 0 1-.232.579z"
     fill="#fff"
     id="path1167" />
</svg>
